HIERARCHY
ROOT Hips
{
	OFFSET 0.000000 0.000000 0.000000 
	CHANNELS 6 Xposition Yposition Zposition Yrotation Zrotation Xrotation 
	JOINT Lumbar
	{
		OFFSET 0.000000 0.000000 0.000000 
		CHANNELS 3 Zrotation Xrotation Yrotation
		JOINT Neck
		{
			OFFSET 0.000000 0.445665 0.000000 
			CHANNELS 3 Zrotation Xrotation Yrotation
			End Site
			{
				OFFSET 0.000000 0.227535 0.000000 
			}
		}
		JOINT RightShoulder
		{
			OFFSET 0.019635 0.377685 0.194865 
			CHANNELS 3 Zrotation Xrotation Yrotation
			JOINT RightElbow
			{
				OFFSET 0.000000 -0.243375 0.000000 
				CHANNELS 2 Zrotation Yrotation
				JOINT RightWrist
				{
					OFFSET 0.000000 -0.264825 0.000000 
					CHANNELS 2 Zrotation Xrotation
					End Site
					{
						OFFSET 0.006600 -0.176220 0.000990 
					}
				}
			}
		}
		JOINT LeftShoulder
		{
			OFFSET 0.019635 0.377685 -0.194865 
			CHANNELS 3 Zrotation Xrotation Yrotation
			JOINT LeftElbow
			{
				OFFSET 0.000000 -0.243375 0.000000 
				CHANNELS 2 Zrotation Yrotation
				JOINT LeftWrist
				{
					OFFSET 0.000000 -0.264825 0.000000 
					CHANNELS 2 Zrotation Xrotation
					End Site
					{
						OFFSET 0.006600 -0.176220 -0.000990 
					}
				}
			}
		}
	}
	JOINT RightHip
	{
		OFFSET 0.052140 -0.069960 0.075570 
		CHANNELS 3 Zrotation Xrotation Yrotation
		JOINT RightKnee
		{
			OFFSET 0.000000 -0.402270 0.000000 
			CHANNELS 1 Zrotation
			JOINT RightAnkle
			{
				OFFSET 0.000000 -0.404085 0.000000 
				CHANNELS 3 Zrotation Xrotation Yrotation
				End Site
				{
					OFFSET 0.204105 -0.089430 0.008415 
				}
			}
		}
	}
	JOINT LeftHip
	{
		OFFSET 0.052140 -0.069960 -0.075570 
		CHANNELS 3 Zrotation Xrotation Yrotation
		JOINT LeftKnee
		{
			OFFSET 0.000000 -0.402270 0.000000 
			CHANNELS 1 Zrotation
			JOINT LeftAnkle
			{
				OFFSET 0.000000 -0.404085 0.000000 
				CHANNELS 3 Zrotation Xrotation Yrotation
				End Site
				{
					OFFSET 0.204105 -0.089430 -0.008415 
				}
			}
		}
	}
}
MOTION
Frames: 30
Frame Time: 0.02
-0.39499 -0.04935 -0.54135 31.16747 -34.77925 -11.98046 52.20656 2.73105 1.6101 -1.50048 -13.00445 -0.83079 -20.99897 -17.89701 15.62571 105.84554 76.22095 -23.73038 -1.67598 158.11569 49.22313 87.38504 5.34439 -79.11192 -0.81132 -3.77157 35.81228 -15.25172 -3.04829 -2.42885 -14.06676 -8.07132 -5.75626 50.52077 -1.19027 10.85717 -19.82248 -8.79643 5.49293 3.70762
-0.39527 -0.04936 -0.54225 31.33985 -34.95821 -12.03607 52.10171 2.79947 1.83752 -0.74774 -13.33462 -0.83079 -21.07296 -18.04072 15.72888 106.035 76.178 -23.15935 -1.81519 157.71549 49.26107 91.99981 5.32224 -79.23261 -0.87505 -3.85519 35.69767 -15.28448 -5.11777 -2.07487 -13.97982 -7.85061 -5.57425 50.66828 -1.26852 10.76519 -19.79271 -8.8104 5.49024 3.7064
-0.39553 -0.0495 -0.54318 31.57924 -35.18564 -12.07518 52.06259 2.79231 2.18486 -0.17401 -13.31488 -0.83079 -21.21989 -18.35642 15.8538 106.27982 76.15888 -22.23297 -2.04829 156.97215 49.29883 89.23865 5.32898 -79.53694 -0.89525 -3.72233 35.58152 -15.34317 -7.90353 -1.66775 -13.81884 -7.50834 -5.30309 50.86758 -1.37058 10.6977 -19.77775 -8.8126 5.48211 3.70191
-0.39579 -0.04957 -0.54409 31.78853 -35.38767 -12.1245 51.99414 2.82056 2.46499 0.46673 -13.45419 -0.83079 -21.32616 -18.57755 15.96479 106.49055 76.12332 -21.51469 -2.21982 156.40945 49.33451 90.04726 5.32996 -79.72442 -0.93043 -3.69091 35.46732 -15.38668 -10.37885 -1.29739 -13.69362 -7.1482 -5.0329 51.03813 -1.45825 10.61822 -19.75579 -8.81964 5.47639 3.6988
-0.39612 -0.04967 -0.54501 31.9955 -35.60356 -12.16264 51.92102 2.84538 2.80303 1.17111 -13.59146 -0.83079 -21.47094 -18.85895 16.08541 106.74204 76.1071 -20.61326 -2.46346 155.73664 49.38248 90.19428 5.32739 -79.97173 -0.96252 -3.63129 35.34877 -15.44458 -12.79075 -0.87546 -13.56062 -7.08167 -4.92077 51.23021 -1.56056 10.54443 -19.73478 -8.82884 5.47088 3.69609
-0.39628 -0.04973 -0.54593 32.22363 -35.80223 -12.2199 51.87412 2.85885 3.04795 1.69887 -13.65027 -0.83079 -21.55127 -19.0591 16.19315 106.92109 76.05834 -20.00084 -2.58399 155.21284 49.40325 89.86428 5.32904 -80.16807 -0.99903 -3.58421 35.23839 -15.4788 -15.49693 -0.54744 -13.42716 -6.38817 -4.46601 51.38999 -1.63833 10.46402 -19.7154 -8.83075 5.46365 3.69177
-0.39598 -0.04966 -0.54688 32.49237 -35.94159 -12.33556 51.88383 2.86119 2.99848 1.78691 -13.58215 -0.83079 -21.42293 -18.99359 16.27101 106.88034 75.90925 -20.30847 -2.31896 155.19791 49.35361 90.07103 5.32851 -80.19319 -1.06633 -3.6327 35.15309 -15.43966 -18.93583 -0.49483 -13.29307 -3.89922 -3.03365 51.44715 -1.64096 10.35694 -19.6968 -8.81543 5.45316 3.68394
-0.39551 -0.04955 -0.54784 32.7803 -36.06194 -12.47066 51.91789 2.85429 2.852 1.70219 -13.44668 -0.83079 -21.22845 -18.84179 16.33463 106.76533 75.72842 -20.91099 -1.93186 155.34332 49.27559 90.0062 5.32846 -80.16986 -1.14148 -3.70208 35.07562 -15.37612 -22.6284 -0.53782 -13.16353 -0.80285 -1.27052 51.47021 -1.6184 10.24261 -19.67936 -8.79316 5.44109 3.67458
-0.39512 -0.04946 -0.54879 33.06064 -36.19106 -12.59589 51.94099 2.8503 2.75428 1.69342 -13.3397 -0.83079 -21.07161 -18.72994 16.39832 106.68799 75.56514 -21.35433 -1.6162 155.4075 49.20685 89.99832 5.32865 -80.17086 -1.21135 -3.75898 34.99295 -15.32473 -26.1451 -0.53479 -13.0435 1.95411 0.30628 51.5095 -1.60843 10.13262 -19.66146 -8.77405 5.42964 3.66582
-0.3947 -0.04936 -0.54978 33.33914 -36.3215 -12.72515 51.96608 2.849 2.64076 1.68933 -13.22948 -0.83079 -20.88565 -18.61974 16.48825 106.59643 75.38766 -21.89263 -1.23608 155.49474 49.15245 90.02179 5.32853 -80.16648 -1.28671 -3.82067 34.91685 -15.26959 -29.94741 -0.54069 -12.87375 4.98673 2.04023 51.54763 -1.59446 10.0185 -19.64377 -8.75454 5.41843 3.65733
-0.39432 -0.04927 -0.55069 33.62438 -36.44379 -12.85053 51.99174 2.84105 2.53596 1.63671 -13.11448 -0.83079 -20.7434 -18.48479 16.52164 106.5157 75.23413 -22.3066 -0.96032 155.57668 49.06263 90.0063 5.32858 -80.16033 -1.35289 -3.88018 34.82932 -15.21635 -33.19951 -0.55153 -12.80747 7.5831 3.52178 51.57923 -1.58255 9.91173 -19.62573 -8.73434 5.40639 3.64797
-0.39408 -0.04919 -0.55135 33.92977 -36.5501 -12.96327 52.01452 2.81594 2.47451 1.4935 -13.0054 -0.83079 -20.73957 -18.29012 16.38751 106.48635 75.13501 -22.31711 -0.99969 155.60552 48.87174 90.01149 5.32858 -80.15982 -1.39505 -3.93049 34.7051 -15.17218 -34.91912 -0.55175 -13.04441 8.86468 4.24522 51.60224 -1.58223 9.81984 -19.60648 -8.71427 5.39275 3.63664
-0.39389 -0.04911 -0.55193 34.23967 -36.6482 -13.07096 52.03639 2.78501 2.42536 1.30806 -12.89516 -0.83079 -20.78136 -18.07487 16.19959 106.46962 75.06424 -22.19231 -1.14814 155.6251 48.64817 90.01186 5.32856 -80.15982 -1.42732 -3.97859 34.56972 -15.13101 -36.06265 -0.55411 -13.38221 9.67793 4.6987 51.61934 -1.58478 9.7368 -19.58676 -8.69374 5.37831 3.62452
-0.39368 -0.04903 -0.55255 34.54323 -36.74864 -13.17926 52.05741 2.75786 2.37293 1.14213 -12.78546 -0.83079 -20.80076 -17.87657 16.0461 106.44457 74.99361 -22.12278 -1.24842 155.65013 48.44611 90.01015 5.32857 -80.15848 -1.46234 -4.02769 34.4415 -15.08976 -37.43542 -0.5563 -13.66202 10.68038 5.26281 51.63822 -1.58609 9.65434 -19.56711 -8.67325 5.36408 3.61275
-0.39347 -0.04895 -0.55317 34.86605 -36.85454 -13.29549 52.08481 2.72566 2.30761 0.96881 -12.67296 -0.83079 -20.82467 -17.64389 15.85029 106.4276 74.86841 -22.08767 -1.3396 155.67525 48.21451 90.01154 5.32855 -80.15597 -1.50519 -4.07773 34.30461 -15.04232 -38.95869 -0.55827 -13.99328 11.806 5.89095 51.65997 -1.58628 9.55233 -19.54806 -8.65321 5.35042 3.60096
-0.39327 -0.04887 -0.55376 35.14902 -36.94708 -13.39358 52.09819 2.70259 2.2731 0.80298 -12.56712 -0.83079 -20.85116 -17.4783 15.7296 106.39813 74.86212 -21.94735 -1.47592 155.696 48.03759 90.01081 5.32857 -80.16192 -1.52899 -4.12462 34.18317 -15.0087 -40.02363 -0.56016 -14.24124 12.5533 6.31538 51.6745 -1.58978 9.49311 -19.5277 -8.63222 5.33543 3.58906
-0.39311 -0.0488 -0.55427 35.32526 -37.00732 -13.4443 52.07408 2.70732 2.32271 0.67071 -12.47919 -0.83079 -20.87136 -17.50933 15.83325 106.328 75.19367 -21.52807 -1.72191 155.7058 48.01527 90.00867 5.32874 -80.14408 -1.50545 -4.16728 34.10655 -15.01327 -39.9943 -0.55997 -14.236 12.38639 6.25605 51.67323 -1.60197 9.55105 -19.50332 -8.60867 5.31671 3.57678
-0.39297 -0.04875 -0.55476 35.46022 -37.05407 -13.47663 52.03536 2.72125 2.40299 0.54796 -12.3985 -0.83079 -20.89326 -17.60778 16.01364 106.24568 75.64103 -21.0102 -2.00804 155.71066 48.05005 90.00612 5.32894 -80.14239 -1.46266 -4.20614 34.04638 -15.03154 -39.51208 -0.55994 -14.14385 11.84686 5.99584 51.66473 -1.61739 9.6517 -19.47784 -8.58424 5.29674 3.56448
-0.39281 -0.04869 -0.55525 35.61121 -37.10537 -13.51626 52.00278 2.73026 2.46837 0.41991 -12.31538 -0.83079 -20.91631 -17.67163 16.1566 106.17146 76.02474 -20.5501 -2.26865 155.71816 48.06168 90.00376 5.32912 -80.16607 -1.42665 -4.24395 33.97844 -15.04321 -39.22164 -0.55955 -14.08958 11.467 5.81909 51.65769 -1.63136 9.7319 -19.45308 -8.56027 5.27752 3.55235
-0.39266 -0.04861 -0.55575 35.77427 -37.16288 -13.56 51.97316 2.74225 2.5382 0.2939 -12.22857 -0.83079 -20.93311 -17.75152 16.30876 106.0873 76.45583 -20.03058 -2.56351 155.72506 48.06032 90.00089 5.32934 -80.05716 -1.3981 -4.29302 33.90947 -15.0568 -38.98899 -0.55831 -14.04279 11.12031 5.67095 51.65734 -1.64565 9.81623 -19.42697 -8.53594 5.25749 3.5395
-0.39251 -0.04858 -0.55623 35.90186 -37.20453 -13.59112 51.93285 2.75021 2.60587 0.16707 -12.15113 -0.83079 -20.96233 -17.81416 16.46028 106.02022 76.81551 -19.61333 -2.7954 155.73053 48.10001 89.99915 5.32947 -80.22132 -1.35019 -4.31826 33.84903 -15.0693 -38.51274 -0.56162 -13.96205 10.61166 5.41303 51.64241 -1.6596 9.90269 -19.40391 -8.51225 5.23886 3.52816
-0.39233 -0.04863 -0.55669 35.94545 -37.20439 -13.58972 51.87532 2.74561 2.66029 0.03114 -12.09865 -0.83079 -21.02857 -17.81395 16.59539 106.00841 76.94807 -19.50174 -2.84054 155.74545 48.23874 90.00091 5.32934 -81.19483 -1.24836 -4.27439 33.7887 -15.07819 -37.68304 -0.55369 -13.77645 9.84263 4.95598 51.58096 -1.67542 9.97833 -19.38528 -8.49008 5.22431 3.52108
-0.39215 -0.04873 -0.55714 35.95394 -37.18914 -13.57671 51.80575 2.73657 2.71128 -0.10488 -12.05533 -0.83079 -21.10616 -17.79391 16.72686 106.0133 77.00473 -19.49772 -2.82062 155.75601 48.41667 90.00382 5.32911 -82.43123 -1.12873 -4.20744 33.74031 -15.08508 -36.59366 -0.55487 -13.56438 8.91192 4.38885 51.50683 -1.69018 10.05548 -19.37056 -8.46873 5.21125 3.51555
-0.39199 -0.04881 -0.55757 35.97607 -37.18159 -13.57046 51.73618 2.72897 2.76379 -0.23765 -12.00707 -0.83079 -21.17663 -17.78223 16.85739 106.00698 77.0973 -19.44515 -2.83233 155.76164 48.57749 90.00606 5.32894 -83.50878 -1.02069 -4.15392 33.69892 -15.09098 -35.48187 -0.56733 -13.38628 7.98968 3.83443 51.44351 -1.70299 10.13637 -19.35683 -8.44722 5.1975 3.50925
-0.39174 -0.04888 -0.55808 36.00689 -37.16966 -13.55724 51.68987 2.72391 2.818 -0.38358 -11.96177 -0.83079 -21.25663 -17.77568 17.00091 106.0151 77.18878 -19.38591 -2.83809 155.79966 48.73881 90.00889 5.32872 -84.75436 -0.89715 -4.08807 33.60461 -15.10503 -34.9225 -0.5143 -13.11613 7.31205 3.42054 51.3577 -1.72588 10.20126 -19.33133 -8.42452 5.18362 3.5031
-0.39168 -0.04898 -0.55843 36.01134 -37.16391 -13.55609 51.59163 2.71267 2.86689 -0.50235 -11.91312 -0.83079 -21.31801 -17.75282 17.11627 105.99782 77.26196 -19.36956 -2.83865 155.76499 48.90576 90.01079 5.32858 -85.71063 -0.80197 -4.0422 33.62443 -15.10189 -33.18722 -0.60035 -13.02809 6.11219 2.70276 51.31697 -1.72783 10.29777 -19.33136 -8.40482 5.17054 3.49713
-0.39206 -0.04912 -0.55837 35.95608 -37.17516 -13.59064 51.35925 2.68321 2.90577 -0.54462 -11.84691 -0.83079 -21.33665 -17.6903 17.14875 105.90152 77.31178 -19.42632 -2.85483 155.56649 49.09374 90.00958 5.32868 -85.81851 -0.78904 -4.05951 33.94581 -15.04793 -28.00876 -1.06418 -13.48823 3.33202 1.06705 51.39476 -1.66907 10.4944 -19.40067 -8.3904 5.15786 3.49031
-0.39264 -0.0493 -0.55814 35.87517 -37.19411 -13.63801 51.07356 2.64815 2.938 -0.5596 -11.77834 -0.83079 -21.3335 -17.61192 17.15437 105.78002 77.34387 -19.52562 -2.86579 155.28798 49.28223 90.00738 5.32886 -85.6246 -0.8053 -4.09727 34.38373 -14.97738 -21.70583 -1.66852 -14.12606 0.06545 -0.85088 51.5205 -1.5898 10.7203 -19.49584 -8.37943 5.14615 3.48376
-0.39317 -0.04946 -0.55797 35.80286 -37.21178 -13.67974 50.80866 2.61703 2.97128 -0.58837 -11.71445 -0.83079 -21.33349 -17.53974 17.17506 105.6733 77.3775 -19.61965 -2.8689 155.02303 49.46123 90.00586 5.32899 -85.55746 -0.80873 -4.12418 34.77497 -14.9169 -16.09136 -2.21111 -14.65704 -2.85789 -2.56801 51.62972 -1.522 10.92375 -19.57907 -8.36875 5.135 3.47775
-0.39354 -0.04961 -0.55789 35.7409 -37.2187 -13.71982 50.55929 2.57961 3.01499 -0.61228 -11.63464 -0.83079 -21.36457 -17.46993 17.18107 105.55321 77.43496 -19.66196 -2.91037 154.85554 49.68363 90.00363 5.32916 -85.5381 -0.81024 -4.15699 35.13934 -14.84575 -9.72181 -2.74478 -15.29583 -6.29658 -4.59141 51.71448 -1.44526 11.16522 -19.66227 -8.35044 5.11986 3.46914
